HIERARCHY
ROOT	mixamorig:Hips
{
	OFFSET	0.000	0.000	0.000
	CHANNELS	6	Xposition	Yposition	Zposition	Yrotation	Xrotation	Zrotation
	JOINT	mixamorig:LeftUpLeg
	{
		OFFSET	8.100	0.000	-0.000
		CHANNELS	3	Yrotation	Xrotation	Zrotation
		JOINT	mixamorig:LeftLeg
		{
			OFFSET	-0.000	43.199	0.000
			CHANNELS	3	Yrotation	Xrotation	Zrotation
			JOINT	mixamorig:LeftFoot
			{
				OFFSET	-0.063	43.299	-0.000
				CHANNELS	3	Yrotation	Xrotation	Zrotation
				End Site
				{
					OFFSET	0.000	14.553	-0.000
				}
			}
		}
	}
	JOINT	mixamorig:RightUpLeg
	{
		OFFSET	-8.100	0.000	-0.000
		CHANNELS	3	Yrotation	Xrotation	Zrotation
		JOINT	mixamorig:RightLeg
		{
			OFFSET	-0.000	43.199	0.000
			CHANNELS	3	Yrotation	Xrotation	Zrotation
			JOINT	mixamorig:RightFoot
			{
				OFFSET	0.063	43.299	-0.000
				CHANNELS	3	Yrotation	Xrotation	Zrotation
				End Site
				{
					OFFSET	-0.000	14.553	0.000
				}
			}
		}
	}
	JOINT	mixamorig:Spine
	{
		OFFSET	0.000	8.484	-0.000
		CHANNELS	3	Yrotation	Xrotation	Zrotation
		JOINT	mixamorig:Spine1
		{
			OFFSET	0.000	15.175	0.000
			CHANNELS	3	Yrotation	Xrotation	Zrotation
			JOINT	mixamorig:Spine2
			{
				OFFSET	0.000	12.812	0.000
				CHANNELS	3	Yrotation	Xrotation	Zrotation
				JOINT	mixamorig:LeftShoulder
				{
					OFFSET	7.101	12.545	0.000
					CHANNELS	3	Yrotation	Xrotation	Zrotation
					JOINT	mixamorig:LeftArm
					{
						OFFSET	0.000	13.616	0.212
						CHANNELS	3	Yrotation	Xrotation	Zrotation
						JOINT	mixamorig:LeftForeArm
						{
							OFFSET	-0.000	26.099	0.000
							CHANNELS	3	Yrotation	Xrotation	Zrotation
							JOINT	mixamorig:LeftHand
							{
								OFFSET	0.000	28.739	0.000
								CHANNELS	3	Yrotation	Xrotation	Zrotation
								JOINT	mixamorig:LeftHandIndex1
								{
									OFFSET	-2.599	8.152	0.105
									CHANNELS	3	Yrotation	Xrotation	Zrotation
									JOINT	mixamorig:LeftHandIndex2
									{
										OFFSET	-0.000	4.690	0.000
										CHANNELS	3	Yrotation	Xrotation	Zrotation
										End Site
										{
											OFFSET	0.000	2.885	0.000
										}
									}
								}
								JOINT	mixamorig:LeftHandMiddle1
								{
									OFFSET	-0.557	8.310	0.105
									CHANNELS	3	Yrotation	Xrotation	Zrotation
									JOINT	mixamorig:LeftHandMiddle2
									{
										OFFSET	0.000	4.765	-0.000
										CHANNELS	3	Yrotation	Xrotation	Zrotation
										End Site
										{
											OFFSET	0.000	3.143	-0.000
										}
									}
								}
								JOINT	mixamorig:LeftHandPinky1
								{
									OFFSET	3.179	7.100	0.105
									CHANNELS	3	Yrotation	Xrotation	Zrotation
									JOINT	mixamorig:LeftHandPinky2
									{
										OFFSET	0.000	3.814	0.000
										CHANNELS	3	Yrotation	Xrotation	Zrotation
										End Site
										{
											OFFSET	-0.000	2.397	-0.000
										}
									}
								}
								JOINT	mixamorig:LeftHandRing1
								{
									OFFSET	1.453	7.868	0.105
									CHANNELS	3	Yrotation	Xrotation	Zrotation
									JOINT	mixamorig:LeftHandRing2
									{
										OFFSET	0.000	4.497	-0.000
										CHANNELS	3	Yrotation	Xrotation	Zrotation
										End Site
										{
											OFFSET	0.000	2.900	0.000
										}
									}
								}
								JOINT	mixamorig:LeftHandThumb1
								{
									OFFSET	-2.846	2.562	0.105
									CHANNELS	3	Yrotation	Xrotation	Zrotation
									JOINT	mixamorig:LeftHandThumb2
									{
										OFFSET	-0.290	3.666	-0.021
										CHANNELS	3	Yrotation	Xrotation	Zrotation
										End Site
										{
											OFFSET	-0.000	3.032	0.000
										}
									}
								}
							}
						}
					}
				}
				JOINT	mixamorig:Neck
				{
					OFFSET	-0.000	20.439	0.000
					CHANNELS	3	Yrotation	Xrotation	Zrotation
					JOINT	mixamorig:Head
					{
						OFFSET	-0.000	10.452	0.000
						CHANNELS	3	Yrotation	Xrotation	Zrotation
						End Site
						{
							OFFSET	3.719	6.163	8.747
						}
						End Site
						{
							OFFSET	-3.700	6.163	8.747
						}
					}
				}
				JOINT	mixamorig:RightShoulder
				{
					OFFSET	-7.101	12.545	0.000
					CHANNELS	3	Yrotation	Xrotation	Zrotation
					JOINT	mixamorig:RightArm
					{
						OFFSET	-0.000	13.618	0.000
						CHANNELS	3	Yrotation	Xrotation	Zrotation
						JOINT	mixamorig:RightForeArm
						{
							OFFSET	0.000	26.099	0.000
							CHANNELS	3	Yrotation	Xrotation	Zrotation
							JOINT	mixamorig:RightHand
							{
								OFFSET	-0.000	28.739	0.000
								CHANNELS	3	Yrotation	Xrotation	Zrotation
								JOINT	mixamorig:RightHandIndex1
								{
									OFFSET	2.599	8.152	0.105
									CHANNELS	3	Yrotation	Xrotation	Zrotation
									JOINT	mixamorig:RightHandIndex2
									{
										OFFSET	-0.000	4.690	0.000
										CHANNELS	3	Yrotation	Xrotation	Zrotation
										End Site
										{
											OFFSET	0.000	2.885	0.000
										}
									}
								}
								JOINT	mixamorig:RightHandMiddle1
								{
									OFFSET	0.557	8.310	0.105
									CHANNELS	3	Yrotation	Xrotation	Zrotation
									JOINT	mixamorig:RightHandMiddle2
									{
										OFFSET	0.000	4.765	0.000
										CHANNELS	3	Yrotation	Xrotation	Zrotation
										End Site
										{
											OFFSET	0.000	3.143	0.000
										}
									}
								}
								JOINT	mixamorig:RightHandPinky1
								{
									OFFSET	-3.179	7.100	0.105
									CHANNELS	3	Yrotation	Xrotation	Zrotation
									JOINT	mixamorig:RightHandPinky2
									{
										OFFSET	0.000	3.814	0.000
										CHANNELS	3	Yrotation	Xrotation	Zrotation
										End Site
										{
											OFFSET	-0.000	2.397	-0.000
										}
									}
								}
								JOINT	mixamorig:RightHandRing1
								{
									OFFSET	-1.453	7.868	0.105
									CHANNELS	3	Yrotation	Xrotation	Zrotation
									JOINT	mixamorig:RightHandRing2
									{
										OFFSET	0.000	4.497	0.000
										CHANNELS	3	Yrotation	Xrotation	Zrotation
										End Site
										{
											OFFSET	0.000	2.900	0.000
										}
									}
								}
								JOINT	mixamorig:RightHandThumb1
								{
									OFFSET	2.846	2.124	0.105
									CHANNELS	3	Yrotation	Xrotation	Zrotation
									JOINT	mixamorig:RightHandThumb2
									{
										OFFSET	0.000	3.995	0.000
										CHANNELS	3	Yrotation	Xrotation	Zrotation
										End Site
										{
											OFFSET	0.000	3.032	-0.000
										}
									}
								}
							}
						}
					}
				}
			}
		}
	}
}
MOTION
Frames:	5
Frame Time:	0.010
-0.000	88.689	0.000	-0.000	-0.000	-0.000	0.000	-0.000	-180.000	-0.000	-0.000	0.000	0.000	65.000	0.000	-0.000	0.000	-180.000	-0.000	-0.000	-0.000	0.000	65.000	0.000	-0.000	-0.000	0.000	0.000	-0.000	-0.000	0.000	-0.000	0.000	-270.000	89.108	0.000	-0.000	0.892	-0.000	0.000	-0.000	0.000	-0.000	-0.000	-0.000	0.000	0.000	-0.000	-0.000	0.000	0.000	0.000	0.000	0.000	-0.000	0.000	0.000	-0.000	0.000	0.000	-0.000	0.000	-0.000	0.000	-0.000	0.000	-0.000	-0.000	0.000	-307.812	357.285	-318.663	-0.001	0.000	-0.001	-0.000	-0.000	-0.000	-0.000	-0.000	-0.000	-90.000	90.000	-0.000	-0.000	-0.000	0.000	-0.000	-0.000	0.000	0.000	-0.000	-0.000	-0.000	-0.000	-0.000	0.000	0.000	0.000	-0.000	-0.000	-0.000	0.000	0.000	-0.000	-0.000	-0.000	0.000	0.000	0.000	-0.000	-0.000	-0.000	0.000	0.000	0.000	-0.000	-52.189	357.285	-41.337	0.000	0.001	0.001	
-0.000	88.689	0.000	-0.000	-0.000	-0.000	0.000	-0.000	-180.000	-0.000	-0.000	0.000	0.000	65.000	0.000	-0.000	0.000	-180.000	-0.000	-0.000	-0.000	0.000	65.000	0.000	-0.000	-0.000	0.000	0.000	-0.000	-0.000	0.000	-0.000	0.000	-270.000	89.108	0.000	-0.000	0.892	-0.000	0.000	-0.000	0.000	-0.000	-0.000	-0.000	0.000	0.000	-0.000	-0.000	0.000	0.000	0.000	0.000	0.000	-0.000	0.000	0.000	-0.000	0.000	0.000	-0.000	0.000	-0.000	0.000	-0.000	0.000	-0.000	-0.000	0.000	-307.812	357.285	-318.663	-0.001	0.000	-0.001	-0.000	-0.000	-0.000	-0.000	-0.000	-0.000	-90.000	90.000	-0.000	-0.000	-0.000	0.000	-0.000	-0.000	0.000	0.000	-0.000	-0.000	-0.000	-0.000	-0.000	0.000	0.000	0.000	-0.000	-0.000	-0.000	0.000	0.000	-0.000	-0.000	-0.000	0.000	0.000	0.000	-0.000	-0.000	-0.000	0.000	0.000	0.000	-0.000	-52.189	357.285	-41.337	0.000	0.001	0.001	
-0.000	88.689	0.000	-0.000	-0.000	-0.000	0.000	-0.000	-180.000	-0.000	-0.000	0.000	0.000	65.000	0.000	-0.000	0.000	-180.000	-0.000	-0.000	-0.000	0.000	65.000	0.000	-0.000	-0.000	0.000	0.000	-0.000	-0.000	0.000	-0.000	0.000	-270.000	89.108	0.000	-0.000	0.892	-0.000	0.000	-0.000	0.000	-0.000	-0.000	-0.000	0.000	0.000	-0.000	-0.000	0.000	0.000	0.000	0.000	0.000	-0.000	0.000	0.000	-0.000	0.000	0.000	-0.000	0.000	-0.000	0.000	-0.000	0.000	-0.000	-0.000	0.000	-307.812	357.285	-318.663	-0.001	0.000	-0.001	-0.000	-0.000	-0.000	-0.000	-0.000	-0.000	-90.000	90.000	-0.000	-0.000	-0.000	0.000	-0.000	-0.000	0.000	0.000	-0.000	-0.000	-0.000	-0.000	-0.000	0.000	0.000	0.000	-0.000	-0.000	-0.000	0.000	0.000	-0.000	-0.000	-0.000	0.000	0.000	0.000	-0.000	-0.000	-0.000	0.000	0.000	0.000	-0.000	-52.189	357.285	-41.337	0.000	0.001	0.001	
-13.358	88.387	27.789	-331.620	16.986	-351.523	-7.328	341.232	-173.882	0.004	332.717	-0.001	-4.896	55.325	-6.271	-16.332	327.754	-177.701	-0.007	339.482	0.001	-2.994	70.626	-9.818	-0.483	6.034	-358.701	-0.835	12.113	-357.424	0.000	-0.000	0.000	-297.525	73.156	-26.587	-220.273	80.149	-222.155	-358.995	359.063	-336.713	-2.916	355.893	-9.276	-357.590	31.322	-1.420	0.000	32.168	-0.000	-0.738	39.254	-2.071	-0.000	39.272	-0.000	-14.503	36.729	-10.277	-0.001	33.500	-0.001	-9.853	42.325	-7.480	-0.000	40.673	-0.000	-295.602	349.143	-325.219	-340.852	15.593	-13.221	-2.224	347.701	-358.613	-2.224	347.701	-358.613	-308.779	81.298	-230.011	-357.969	53.754	-39.210	-336.056	3.551	-22.338	-350.700	273.582	-48.255	-1.482	29.540	-355.616	-0.000	32.648	-0.000	-359.037	31.699	-356.606	-0.000	31.763	-0.000	-342.413	34.794	-339.511	-0.000	31.665	-0.000	-353.522	31.722	-355.958	-0.000	29.596	-0.000	-82.621	335.467	-33.039	-356.373	11.782	-1.725	
-13.352	88.946	27.763	-331.609	16.983	-351.516	-7.108	342.796	-174.044	0.007	336.061	-0.001	-4.562	53.577	-5.853	-16.324	330.257	-177.770	-0.009	344.459	0.001	-2.679	68.159	-9.378	-0.484	6.034	-358.700	-0.838	12.115	-357.422	0.000	-0.000	0.000	-297.518	73.151	-26.579	-220.213	80.142	-222.104	-358.994	359.069	-336.705	-2.904	355.771	-9.374	-357.593	31.350	-1.438	-0.000	32.200	-0.000	-0.745	39.271	-2.090	-0.000	39.290	-0.000	-14.498	36.725	-10.290	-0.001	33.492	-0.001	-9.871	42.331	-7.507	-0.000	40.684	-0.000	-295.599	349.156	-325.207	-340.870	15.623	-13.181	-2.221	347.704	-358.611	-2.221	347.704	-358.611	-308.790	81.298	-230.021	-358.036	53.735	-39.309	-336.063	3.507	-22.313	-350.813	273.537	-48.085	-1.481	29.516	-355.615	-0.000	32.561	-0.000	-359.091	31.273	-356.753	-0.000	31.332	-0.000	-342.416	34.764	-339.479	-0.000	31.635	-0.000	-353.499	31.711	-355.865	-0.000	29.561	-0.000	-82.632	335.494	-33.029	-356.352	11.868	-1.705	
